<?xml version="1.0" encoding="UTF-8" standalone="no"?>
<!-- Created with Inkscape (http://www.inkscape.org/) -->

<svg
   xmlns:dc="http://purl.org/dc/elements/1.1/"
   xmlns:cc="http://creativecommons.org/ns#"
   xmlns:rdf="http://www.w3.org/1999/02/22-rdf-syntax-ns#"
   xmlns:svg="http://www.w3.org/2000/svg"
   xmlns="http://www.w3.org/2000/svg"
   xmlns:sodipodi="http://sodipodi.sourceforge.net/DTD/sodipodi-0.dtd"
   xmlns:inkscape="http://www.inkscape.org/namespaces/inkscape"
   width="158.19949"
   height="214.02396"
   id="svg3201"
   version="1.1"
   inkscape:version="0.91 r13725"
   sodipodi:docname="awesome_trashbag_logo.svg"
   inkscape:export-filename="/home/adrien/Projects/RantojenPuhdistus.fi/prototyping/images/svg/awesome_trashbag_logo.png"
   inkscape:export-xdpi="600"
   inkscape:export-ydpi="600">
  <defs
     id="defs3203" />
  <sodipodi:namedview
     id="base"
     pagecolor="#ffffff"
     bordercolor="#666666"
     borderopacity="1.0"
     inkscape:pageopacity="0.0"
     inkscape:pageshadow="2"
     inkscape:zoom="1"
     inkscape:cx="108.63675"
     inkscape:cy="32.030055"
     inkscape:document-units="px"
     inkscape:current-layer="layer1"
     showgrid="false"
     fit-margin-top="0"
     fit-margin-left="0"
     fit-margin-right="0"
     fit-margin-bottom="0"
     inkscape:window-width="1366"
     inkscape:window-height="695"
     inkscape:window-x="0"
     inkscape:window-y="27"
     inkscape:window-maximized="1" />
  <metadata
     id="metadata3206">
    <rdf:RDF>
      <cc:Work
         rdf:about="">
        <dc:format>image/svg+xml</dc:format>
        <dc:type
           rdf:resource="http://purl.org/dc/dcmitype/StillImage" />
        <dc:title></dc:title>
      </cc:Work>
    </rdf:RDF>
  </metadata>
  <g
     inkscape:label="Layer 1"
     inkscape:groupmode="layer"
     id="layer1"
     transform="translate(-239.10596,-111.24409)">
    <path
       style="fill:#ffffff;fill-opacity:1"
       d="m 299.88365,306.62156 c -22.07402,-29.59212 -46.99326,-70.2751 -54.77431,-89.42452 -21.18768,-52.1431 16.19523,-106.33218 73.09142,-105.95095 23.78839,0.15937 41.91386,8.4175 58.88416,26.82808 29.9257,32.46556 26.90955,66.65749 -10.8831,123.37439 -17.47084,26.21936 -44.89703,62.39243 -48.35702,63.77939 -1.72816,0.69293 -9.81067,-7.6801 -17.96115,-18.60639 z"
       id="path4279-5"
       inkscape:connector-curvature="0"
       inkscape:export-filename="/home/adrien/Projects/RantojenPuhdistus.fi/prototyping/images/svg/awesome_trashbag_logo.png"
       inkscape:export-xdpi="600"
       inkscape:export-ydpi="600" />
    <path
       inkscape:connector-curvature="0"
       style="fill:#000000;fill-opacity:1;stroke:none"
       d="m 306.656,136.60778 7.84488,13.61958 c -16.71483,1.78103 -29.91088,15.34943 -31.05266,32.25119 l -0.10866,0 0,2.39706 0,33.34073 7.0822,6.21053 -7.0822,6.21054 0,2.2881 69.73229,0 0,-2.2881 -7.08219,-6.21054 7.08219,-6.21053 0,-33.34073 0,-2.39706 -0.10866,0 c -1.1418,-16.90176 -14.33788,-30.47016 -31.05268,-32.25119 l 7.84488,-13.61958 -23.09881,0 z"
       id="path4544-1-3"
       inkscape:export-filename="/home/adrien/Projects/RantojenPuhdistus.fi/prototyping/images/svg/awesome_trashbag_logo.png"
       inkscape:export-xdpi="600"
       inkscape:export-ydpi="600" />
  </g>
</svg>
